<?xml version="1.0" encoding="UTF-8"?>
<svg xmlns="http://www.w3.org/2000/svg" viewBox="0 0 880 540" width="880" height="540" role="img" aria-labelledby="t-pcal d-pcal">
  <title id="t-pcal">PCA9555 / PCAL9555A 16-GPIO topology with I2C address selector and Agile I/O extensions</title>
  <desc id="d-pcal">I2C-controlled 16-bit GPIO expander with two 8-bit ports (PORT_0: pins 0-7, PORT_1: pins 8-15). Address pins A0/A1/A2 select base address 0x20..0x27. PCAL9555A adds Agile I/O features (pull-up/down, drive strength, latch, interrupts) which the driver auto-detects.</desc>
  <defs>
    <style type="text/css"><![CDATA[
      .panel    { fill: #ffffff; }
      .panelL   { fill: #ffffff; stroke: #1a365d; stroke-width: 2; }
      .chip     { fill: #fef5e7; stroke: #c05621; stroke-width: 2; }
      .pin-cell { fill: #ebf4ff; stroke: #2c5282; stroke-width: 1.4; }
      .agile    { fill: #fff5f5; stroke: #c53030; stroke-width: 1.6; stroke-dasharray: 5 3; }
      .box      { fill: #f4f6f8; stroke: #1a365d; stroke-width: 2; }
      .wire-i2c { stroke: #2b6cb0; stroke-width: 2.5; fill: none; stroke-linecap: round; }
      .wire-int { stroke: #c05621; stroke-width: 2.5; fill: none; stroke-linecap: round; }
      .head     { font-family: system-ui, sans-serif; font-size: 16px; font-weight: 600; fill: #1a365d; text-anchor: middle; }
      .title    { font-family: system-ui, sans-serif; font-size: 13px; font-weight: 600; fill: #1a365d; text-anchor: middle; }
      .titleL   { font-family: system-ui, sans-serif; font-size: 13px; font-weight: 600; fill: #1a365d; text-anchor: start; }
      .small    { font-family: system-ui, sans-serif; font-size: 11px; fill: #4a5568; text-anchor: middle; }
      .smallL   { font-family: system-ui, sans-serif; font-size: 11px; fill: #4a5568; text-anchor: start; }
      .pin      { font-family: "DejaVu Sans Mono", Consolas, monospace; font-size: 11px; fill: #1a202c; text-anchor: middle; }
      .pinL     { font-family: "DejaVu Sans Mono", Consolas, monospace; font-size: 11px; fill: #1a202c; text-anchor: start; }
      .legend   { font-family: system-ui, sans-serif; font-size: 11px; fill: #4a5568; }
    ]]></style>
    <marker id="ar-pcl" markerWidth="8" markerHeight="8" refX="6" refY="3" orient="auto">
      <path d="M0,0 L6,3 L0,6 z" fill="#2b6cb0"/>
    </marker>
  </defs>
  <rect class="panel" width="880" height="540"/>

  <text class="head"  x="440" y="26">PCA9555 / PCAL9555A - 16-bit I2C GPIO expander</text>
  <text class="small" x="440" y="44">Two 8-bit ports. Driver auto-detects PCA9555 vs PCAL9555A; Agile I/O features degrade gracefully on the standard part.</text>

  <!-- MCU I2C box (left) -->
  <rect class="box" x="30" y="80" width="130" height="200" rx="6"/>
  <text class="title" x="95" y="102">MCU I2C</text>
  <text class="pin" x="95" y="124">SDA</text>
  <text class="pin" x="95" y="142">SCL</text>
  <text class="pin" x="95" y="160">3V3</text>
  <text class="pin" x="95" y="178">GND</text>
  <text class="pin" x="95" y="200">INT</text>
  <text class="small" x="95" y="218">(active-low)</text>
  <text class="small" x="95" y="234">PCAL only</text>

  <!-- I2C wires from MCU to chip -->
  <line class="wire-i2c" x1="160" y1="130" x2="220" y2="130" marker-end="url(#ar-pcl)"/>
  <line class="wire-i2c" x1="160" y1="148" x2="220" y2="148" marker-end="url(#ar-pcl)"/>
  <text class="small" x="190" y="124">SDA</text>
  <text class="small" x="190" y="166">SCL</text>
  <line class="wire-int" x1="220" y1="200" x2="160" y2="200" marker-end="url(#ar-pcl)"/>
  <text class="small" x="190" y="194">INT</text>

  <!-- Chip body -->
  <rect class="chip" x="220" y="80" width="430" height="320" rx="10"/>
  <text class="head" x="435" y="104">PCA9555 / PCAL9555A</text>
  <text class="small" x="435" y="122">2x 8-bit I/O ports &#183; I2C up to 400 kHz &#183; per-pin direction / polarity</text>

  <!-- PORT_0 row (pins 0..7) -->
  <text class="titleL" x="232" y="156">PORT_0  (pins 0..7)</text>
  <g>
    <rect class="pin-cell" x="232" y="166" width="46" height="38" rx="4"/><text class="title" x="255" y="190">P0_0</text>
    <rect class="pin-cell" x="284" y="166" width="46" height="38" rx="4"/><text class="title" x="307" y="190">P0_1</text>
    <rect class="pin-cell" x="336" y="166" width="46" height="38" rx="4"/><text class="title" x="359" y="190">P0_2</text>
    <rect class="pin-cell" x="388" y="166" width="46" height="38" rx="4"/><text class="title" x="411" y="190">P0_3</text>
    <rect class="pin-cell" x="440" y="166" width="46" height="38" rx="4"/><text class="title" x="463" y="190">P0_4</text>
    <rect class="pin-cell" x="492" y="166" width="46" height="38" rx="4"/><text class="title" x="515" y="190">P0_5</text>
    <rect class="pin-cell" x="544" y="166" width="46" height="38" rx="4"/><text class="title" x="567" y="190">P0_6</text>
    <rect class="pin-cell" x="596" y="166" width="46" height="38" rx="4"/><text class="title" x="619" y="190">P0_7</text>
  </g>

  <!-- PORT_1 row (pins 8..15) -->
  <text class="titleL" x="232" y="232">PORT_1  (pins 8..15)</text>
  <g>
    <rect class="pin-cell" x="232" y="242" width="46" height="38" rx="4"/><text class="title" x="255" y="266">P1_0</text>
    <rect class="pin-cell" x="284" y="242" width="46" height="38" rx="4"/><text class="title" x="307" y="266">P1_1</text>
    <rect class="pin-cell" x="336" y="242" width="46" height="38" rx="4"/><text class="title" x="359" y="266">P1_2</text>
    <rect class="pin-cell" x="388" y="242" width="46" height="38" rx="4"/><text class="title" x="411" y="266">P1_3</text>
    <rect class="pin-cell" x="440" y="242" width="46" height="38" rx="4"/><text class="title" x="463" y="266">P1_4</text>
    <rect class="pin-cell" x="492" y="242" width="46" height="38" rx="4"/><text class="title" x="515" y="266">P1_5</text>
    <rect class="pin-cell" x="544" y="242" width="46" height="38" rx="4"/><text class="title" x="567" y="266">P1_6</text>
    <rect class="pin-cell" x="596" y="242" width="46" height="38" rx="4"/><text class="title" x="619" y="266">P1_7</text>
  </g>

  <!-- Agile I/O extensions panel (inside chip body, bottom) -->
  <rect class="agile" x="232" y="298" width="408" height="86" rx="6"/>
  <text class="title" x="436" y="318" fill="#c53030">PCAL9555A only - Agile I/O extensions</text>
  <text class="small" x="436" y="338">per-pin pull-up / pull-down  &#183;  4-level drive strength  &#183;  input latch</text>
  <text class="small" x="436" y="356">interrupt mask + status (per pin)  &#183;  output mode (push-pull / open-drain)</text>
  <text class="small" x="436" y="374">PCA9555 returns Error::UnsupportedFeature on these calls (degrades gracefully)</text>

  <!-- Address selector panel (right) -->
  <rect class="box" x="680" y="80" width="170" height="220" rx="6"/>
  <text class="title" x="765" y="102">I2C address selector</text>
  <text class="smallL" x="694" y="122">addr = 0x20</text>
  <text class="smallL" x="694" y="138">  | (A2 &lt;&lt; 2)</text>
  <text class="smallL" x="694" y="154">  | (A1 &lt;&lt; 1)</text>
  <text class="smallL" x="694" y="170">  | A0</text>
  <text class="smallL" x="694" y="190">=&gt; 8 chips per I2C bus</text>
  <text class="pinL"   x="694" y="216">A2 A1 A0  -&gt;  addr</text>
  <text class="pinL"   x="694" y="234">0  0  0   -&gt;  0x20</text>
  <text class="pinL"   x="694" y="252">0  0  1   -&gt;  0x21</text>
  <text class="pinL"   x="694" y="268">  ...</text>
  <text class="pinL"   x="694" y="286">1  1  1   -&gt;  0x27</text>

  <!-- Driver auto-detection panel (below chip, full width) -->
  <rect class="panelL" x="220" y="416" width="630" height="76" rx="6"/>
  <text class="title" x="535" y="436">Driver auto-detection sequence</text>
  <text class="small" x="535" y="454">init reads INPUT_PORT_0 (0x00) -&gt; probes OUTPUT_CONF (0x4F)</text>
  <text class="small" x="535" y="468">if ACK =&gt; PCAL9555A (Agile I/O enabled) ; if NACK =&gt; PCA9555 (standard)</text>
  <text class="small" x="535" y="484">methods that need Agile I/O return Error::UnsupportedFeature on PCA9555</text>

  <!-- Bottom legend in its own row -->
  <g transform="translate(30, 510)">
    <text class="titleL" x="0" y="0" fill="#1a365d">Legend</text>
    <rect class="pin-cell" x="80"  y="-10" width="14" height="14"/>
    <text class="legend" x="100" y="0">GPIO pin (input or output)</text>
    <rect class="agile"    x="280" y="-10" width="14" height="14"/>
    <text class="legend" x="300" y="0">PCAL9555A-only feature</text>
    <line class="wire-i2c" x1="480" y1="-3" x2="504" y2="-3" marker-end="url(#ar-pcl)"/>
    <text class="legend" x="512" y="0">I2C control</text>
    <line class="wire-int" x1="600" y1="-3" x2="624" y2="-3" marker-end="url(#ar-pcl)"/>
    <text class="legend" x="632" y="0">Interrupt (PCAL only)</text>
  </g>
</svg>
