<?xml version="1.0" encoding="UTF-8"?>
<svg xmlns="http://www.w3.org/2000/svg" viewBox="0 0 900 520" width="900" height="520" role="img" aria-labelledby="t-wir d-wir">
  <title id="t-wir">PCA9555 / PCAL9555A wiring &#8212; single-device and multi-device I2C bus</title>
  <desc id="d-wir">Wiring diagram showing how to connect a PCA9555 or PCAL9555A GPIO expander to an MCU via I2C, with 4.7 k&#937; pull-ups on SCL and SDA. Bottom section shows multi-device bus with shared pull-ups and address pin selection.</desc>
  <defs>
    <style type="text/css"><![CDATA[
      .panel    { fill: #ffffff; }
      .box      { fill: #f4f6f8; stroke: #1a365d; stroke-width: 2; }
      .chip     { fill: #fef5e7; stroke: #c05621; stroke-width: 2; }
      .wire-pwr { stroke: #c53030; stroke-width: 2.5; fill: none; stroke-linecap: round; }
      .wire-gnd { stroke: #4a5568; stroke-width: 2.5; fill: none; stroke-linecap: round; }
      .wire-i2c { stroke: #2b6cb0; stroke-width: 2.5; fill: none; stroke-linecap: round; }
      .wire-int { stroke: #c05621; stroke-width: 2; fill: none; stroke-linecap: round; stroke-dasharray: 5 3; }
      .pullup   { fill: #ebf4ff; stroke: #2c5282; stroke-width: 1.5; }
      .gpio-bank{ fill: #f0fff4; stroke: #276749; stroke-width: 1.5; }
      .head     { font-family: system-ui, sans-serif; font-size: 16px; font-weight: 600; fill: #1a365d; text-anchor: middle; }
      .title    { font-family: system-ui, sans-serif; font-size: 13px; font-weight: 600; fill: #1a365d; text-anchor: middle; }
      .titleL   { font-family: system-ui, sans-serif; font-size: 13px; font-weight: 600; fill: #1a365d; text-anchor: start; }
      .small    { font-family: system-ui, sans-serif; font-size: 11px; fill: #4a5568; text-anchor: middle; }
      .smallL   { font-family: system-ui, sans-serif; font-size: 11px; fill: #4a5568; text-anchor: start; }
      .pinL     { font-family: "DejaVu Sans Mono", Consolas, monospace; font-size: 12px; fill: #1a202c; text-anchor: start; }
      .legend   { font-family: system-ui, sans-serif; font-size: 11px; fill: #4a5568; }
    ]]></style>
  </defs>
  <rect class="panel" width="900" height="520"/>

  <!-- =============== SECTION 1: Single device =============== -->
  <text class="head" x="450" y="24">PCA9555 / PCAL9555A &#8212; I2C wiring</text>

  <rect class="box" x="16" y="40" width="868" height="216" rx="8"/>
  <text class="titleL" x="28" y="60">Single device</text>

  <!-- 3.3V power rail -->
  <line class="wire-pwr" x1="50" y1="80" x2="560" y2="80"/>
  <text class="pinL" x="34" y="76">3.3V</text>

  <!-- MCU box -->
  <rect class="box" x="50" y="100" width="120" height="130" rx="6"/>
  <text class="title" x="110" y="122">MCU</text>
  <text class="pinL" x="66" y="144">SCL</text>
  <text class="pinL" x="66" y="164">SDA</text>
  <text class="pinL" x="66" y="188">3.3V</text>
  <text class="pinL" x="66" y="208">GND</text>

  <!-- I2C wires: MCU to pull-up junctions -->
  <line class="wire-i2c" x1="170" y1="140" x2="216" y2="140"/>
  <line class="wire-i2c" x1="170" y1="160" x2="260" y2="160"/>
  <!-- I2C wires: pull-up junctions to chip -->
  <line class="wire-i2c" x1="216" y1="140" x2="290" y2="140"/>
  <line class="wire-i2c" x1="260" y1="160" x2="290" y2="160"/>
  <!-- Power / GND wires: MCU to chip -->
  <line class="wire-pwr" x1="170" y1="184" x2="290" y2="184"/>
  <line class="wire-gnd" x1="170" y1="204" x2="290" y2="204"/>

  <!-- Wire labels between MCU and chip -->
  <text class="small" x="196" y="134">SCL</text>
  <text class="small" x="196" y="156">SDA</text>
  <text class="small" x="230" y="180">VDD</text>
  <text class="small" x="230" y="200">GND</text>

  <!-- Pull-up resistor for SCL -->
  <line class="wire-i2c" x1="216" y1="140" x2="216" y2="114"/>
  <rect class="pullup" x="202" y="92" width="28" height="22" rx="3"/>
  <text class="small" x="216" y="107">4.7k&#937;</text>
  <line class="wire-pwr" x1="216" y1="92" x2="216" y2="80"/>

  <!-- Pull-up resistor for SDA -->
  <line class="wire-i2c" x1="260" y1="160" x2="260" y2="114"/>
  <rect class="pullup" x="246" y="92" width="28" height="22" rx="3"/>
  <text class="small" x="260" y="107">4.7k&#937;</text>
  <line class="wire-pwr" x1="260" y1="92" x2="260" y2="80"/>

  <!-- PCA9555 chip body -->
  <rect class="chip" x="290" y="100" width="270" height="130" rx="8"/>
  <text class="title" x="425" y="122">PCA9555 / PCAL9555A</text>
  <text class="pinL" x="304" y="144">SCL</text>
  <text class="pinL" x="304" y="164">SDA</text>
  <text class="pinL" x="304" y="188">VDD</text>
  <text class="pinL" x="304" y="208">GND</text>

  <!-- VDD wire from chip to 3.3V rail -->
  <line class="wire-pwr" x1="530" y1="184" x2="560" y2="184"/>
  <line class="wire-pwr" x1="560" y1="184" x2="560" y2="80"/>

  <!-- GND rail -->
  <line class="wire-gnd" x1="50" y1="244" x2="560" y2="244"/>
  <text class="pinL" x="34" y="248">GND</text>
  <line class="wire-gnd" x1="110" y1="230" x2="110" y2="244"/>
  <line class="wire-gnd" x1="370" y1="230" x2="370" y2="244"/>

  <!-- GPIO bank PORT_0 -->
  <rect class="gpio-bank" x="610" y="102" width="140" height="50" rx="6"/>
  <text class="title" x="680" y="124">PORT_0</text>
  <text class="small" x="680" y="140">8 GPIOs (P0.0&#8211;P0.7)</text>
  <line x1="560" y1="128" x2="610" y2="128" stroke="#276749" stroke-width="2" fill="none" stroke-linecap="round"/>

  <!-- GPIO bank PORT_1 -->
  <rect class="gpio-bank" x="610" y="166" width="140" height="50" rx="6"/>
  <text class="title" x="680" y="188">PORT_1</text>
  <text class="small" x="680" y="204">8 GPIOs (P1.0&#8211;P1.7)</text>
  <line x1="560" y1="192" x2="610" y2="192" stroke="#276749" stroke-width="2" fill="none" stroke-linecap="round"/>

  <!-- INT (optional, dashed) from chip bottom -->
  <line class="wire-int" x1="425" y1="230" x2="425" y2="240"/>
  <text class="smallL" x="434" y="240">INT (optional, active-low)</text>

  <!-- =============== SECTION 2: Multi-device I2C bus =============== -->
  <rect class="box" x="16" y="268" width="868" height="196" rx="8"/>
  <text class="titleL" x="28" y="288">Multi-device I2C bus (shared pull-ups)</text>

  <!-- 3.3V rail -->
  <line class="wire-pwr" x1="50" y1="306" x2="320" y2="306"/>
  <text class="pinL" x="34" y="302">3.3V</text>

  <!-- MCU box -->
  <rect class="box" x="50" y="320" width="110" height="80" rx="6"/>
  <text class="title" x="105" y="342">MCU</text>
  <text class="pinL" x="66" y="362">SCL</text>
  <text class="pinL" x="66" y="380">SDA</text>

  <!-- SCL bus: MCU out to pull-up, then horizontal to far right -->
  <line class="wire-i2c" x1="160" y1="358" x2="840" y2="358"/>
  <!-- SDA bus: MCU out to pull-up, then horizontal to far right -->
  <line class="wire-i2c" x1="160" y1="376" x2="840" y2="376"/>

  <!-- SCL/SDA bus labels -->
  <text class="small" x="186" y="352">SCL</text>
  <text class="small" x="186" y="392">SDA</text>

  <!-- Shared pull-up for SCL -->
  <rect class="pullup" x="230" y="316" width="72" height="18" rx="4"/>
  <text class="small" x="266" y="329">4.7 k&#937;</text>
  <line class="wire-pwr" x1="266" y1="316" x2="266" y2="306"/>
  <line class="wire-i2c" x1="266" y1="334" x2="266" y2="358"/>

  <!-- Shared pull-up for SDA -->
  <rect class="pullup" x="230" y="338" width="72" height="18" rx="4"/>
  <text class="small" x="266" y="351">4.7 k&#937;</text>
  <line class="wire-pwr" x1="302" y1="347" x2="320" y2="347"/>
  <line class="wire-pwr" x1="320" y1="347" x2="320" y2="306"/>
  <line class="wire-i2c" x1="266" y1="356" x2="266" y2="376"/>

  <!-- T-junction dots on SCL bus -->
  <circle cx="420" cy="358" r="4" fill="#2b6cb0"/>
  <circle cx="680" cy="358" r="4" fill="#2b6cb0"/>
  <!-- T-junction dots on SDA bus -->
  <circle cx="440" cy="376" r="4" fill="#2b6cb0"/>
  <circle cx="700" cy="376" r="4" fill="#2b6cb0"/>

  <!-- Device #1: drop-down from bus -->
  <line class="wire-i2c" x1="420" y1="358" x2="420" y2="404"/>
  <line class="wire-i2c" x1="440" y1="376" x2="440" y2="404"/>
  <text class="pinL" x="404" y="400">SCL</text>
  <text class="pinL" x="444" y="400">SDA</text>
  <rect class="chip" x="370" y="404" width="200" height="50" rx="6"/>
  <text class="title" x="470" y="424">Device #1</text>
  <text class="small" x="470" y="440">A0=0, addr=0x20</text>

  <!-- Device #2: drop-down from bus -->
  <line class="wire-i2c" x1="680" y1="358" x2="680" y2="404"/>
  <line class="wire-i2c" x1="700" y1="376" x2="700" y2="404"/>
  <text class="pinL" x="664" y="400">SCL</text>
  <text class="pinL" x="704" y="400">SDA</text>
  <rect class="chip" x="630" y="404" width="200" height="50" rx="6"/>
  <text class="title" x="730" y="424">Device #2</text>
  <text class="small" x="730" y="440">A0=1, addr=0x21</text>

  <!-- =============== LEGEND =============== -->
  <g transform="translate(28, 482)">
    <text class="titleL" x="0" y="0">Legend</text>

    <line class="wire-pwr" x1="70" y1="-4" x2="94" y2="-4"/>
    <text class="legend" x="100" y="0">3.3V power</text>

    <line class="wire-gnd" x1="190" y1="-4" x2="214" y2="-4"/>
    <text class="legend" x="220" y="0">Ground</text>

    <line class="wire-i2c" x1="290" y1="-4" x2="314" y2="-4"/>
    <text class="legend" x="320" y="0">I2C (SCL / SDA)</text>

    <line class="wire-int" x1="430" y1="-4" x2="454" y2="-4"/>
    <text class="legend" x="460" y="0">Interrupt (optional)</text>

    <rect class="pullup" x="580" y="-12" width="14" height="14" rx="3"/>
    <text class="legend" x="600" y="0">Pull-up resistor</text>

    <rect class="gpio-bank" x="700" y="-12" width="14" height="14" rx="3"/>
    <text class="legend" x="720" y="0">GPIO bank</text>
  </g>

  <g transform="translate(28, 504)">
    <rect class="chip" x="70" y="-12" width="14" height="14" rx="3"/>
    <text class="legend" x="90" y="0">PCA9555 / PCAL9555A IC</text>

    <rect class="box" x="250" y="-12" width="14" height="14" rx="3"/>
    <text class="legend" x="270" y="0">MCU / section panel</text>

    <circle cx="377" cy="-5" r="4" fill="#2b6cb0"/>
    <text class="legend" x="388" y="0">I2C bus junction</text>
  </g>
</svg>
